# xmcd
# 
# Track frame offsets:
#     150
#     17064
#     34747
#     50518
#     68110
#     86198
#     106448
#     121798
#     138203
#     157183
#     174796
# 
# Disc length: 2754
# 
# Revision: 0
# Processed by: cddbd v1.5.2PL0 Copyright (c) Steve Scherf et al.
# Submitted via: fre:ac v1.0.31
# 
DISCID=8c0ac00b
DTITLE=Giusy Ferreri - L’attesa
DYEAR=2014
DGENRE=
TTITLE0=Inciso sulla pelle
TTITLE1=Nessuno come te mi sa svegliare
TTITLE2=L'amore possiede il bene
TTITLE3=Ti porto a cena con me
TTITLE4=L'anima
TTITLE5=Per darti di piu'
TTITLE6=Victoria
TTITLE7=Neve porpora
TTITLE8=L'amore ha un retrogusto amaro
TTITLE9=Lacrime
TTITLE10=Qualunque vita e' straordinaria
EXTD=
EXTT0=
EXTT1=
EXTT2=
EXTT3=
EXTT4=
EXTT5=
EXTT6=
EXTT7=
EXTT8=
EXTT9=
EXTT10=
PLAYORDER=
